name Walk8.mot
datacolumns 19
datarows 30
range 3.17200000 3.20100000
endheader

                time	   L_ground_force_vx	   L_ground_force_vy	   L_ground_force_vz	   L_ground_force_px	   L_ground_force_py	   L_ground_force_pz	   R_ground_force_vx	   R_ground_force_vy	   R_ground_force_vz	   R_ground_force_px	   R_ground_force_py	   R_ground_force_pz	   L_ground_torque_x	   L_ground_torque_y	   L_ground_torque_z	   R_ground_torque_x	   R_ground_torque_y	   R_ground_torque_z	
          3.17200000	          0.00000000	          0.00000000	          0.00000000	          0.00000000	          0.00000000	          0.00000000	         21.02746137	        725.73149161	         21.96588393	         -0.17627296	          0.00000000	          0.03347222	          0.00000000	          0.00000000	          0.00000000	          0.00000000	         -0.55469214	          0.00000000	
          3.17300000	          0.00000000	          0.00000000	          0.00000000	          0.00000000	          0.00000000	          0.00000000	         22.01119347	        728.31091148	         23.60566212	         -0.17585728	          0.00000000	          0.03357676	          0.00000000	          0.00000000	          0.00000000	          0.00000000	         -0.39854524	          0.00000000	
          3.17400000	          0.00000000	          0.00000000	          0.00000000	          0.00000000	          0.00000000	          0.00000000	         23.03010373	        730.80284117	         25.03872680	         -0.17547179	          0.00000000	          0.03367584	          0.00000000	          0.00000000	          0.00000000	          0.00000000	         -0.28717570	          0.00000000	
          3.17500000	          0.00000000	          0.00000000	          0.00000000	          0.00000000	          0.00000000	          0.00000000	         24.00561227	        733.11245252	         26.08893811	         -0.17512094	          0.00000000	          0.03375021	          0.00000000	          0.00000000	          0.00000000	          0.00000000	         -0.23538406	          0.00000000	
          3.17600000	          0.00000000	          0.00000000	          0.00000000	          0.00000000	          0.00000000	          0.00000000	         24.87635685	        735.23343171	         26.71615005	         -0.17479146	          0.00000000	          0.03380552	          0.00000000	          0.00000000	          0.00000000	          0.00000000	         -0.23692575	          0.00000000	
          3.17700000	          0.00000000	          0.00000000	          0.00000000	          0.00000000	          0.00000000	          0.00000000	         25.59793976	        737.21244782	         26.98254168	         -0.17447262	          0.00000000	          0.03387149	          0.00000000	          0.00000000	          0.00000000	          0.00000000	         -0.26798294	          0.00000000	
          3.17800000	          0.00000000	          0.00000000	          0.00000000	          0.00000000	          0.00000000	          0.00000000	         26.14242790	        739.11084226	         26.97464025	         -0.17416776	          0.00000000	          0.03396724	          0.00000000	          0.00000000	          0.00000000	          0.00000000	         -0.30390054	          0.00000000	
          3.17900000	          0.00000000	          0.00000000	          0.00000000	          0.00000000	          0.00000000	          0.00000000	         26.50956040	        741.00836382	         26.77786277	         -0.17388072	          0.00000000	          0.03408580	          0.00000000	          0.00000000	          0.00000000	          0.00000000	         -0.32782070	          0.00000000	
          3.18000000	          0.00000000	          0.00000000	          0.00000000	          0.00000000	          0.00000000	          0.00000000	         26.73637471	        742.98202899	         26.48517845	         -0.17359062	          0.00000000	          0.03422045	          0.00000000	          0.00000000	          0.00000000	          0.00000000	         -0.32966149	          0.00000000	
          3.18100000	          0.00000000	          0.00000000	          0.00000000	          0.00000000	          0.00000000	          0.00000000	         26.88676743	        745.05226249	         26.17921182	         -0.17325024	          0.00000000	          0.03437443	          0.00000000	          0.00000000	          0.00000000	          0.00000000	         -0.30850175	          0.00000000	
          3.18200000	          0.00000000	          0.00000000	          0.00000000	          0.00000000	          0.00000000	          0.00000000	         27.02852545	        747.17288728	         25.92365071	         -0.17282324	          0.00000000	          0.03453971	          0.00000000	          0.00000000	          0.00000000	          0.00000000	         -0.27161004	          0.00000000	
          3.18300000	          0.00000000	          0.00000000	          0.00000000	          0.00000000	          0.00000000	          0.00000000	         27.21261178	        749.28141678	         25.76180625	         -0.17232138	          0.00000000	          0.03469276	          0.00000000	          0.00000000	          0.00000000	          0.00000000	         -0.22945078	          0.00000000	
          3.18400000	          0.00000000	          0.00000000	          0.00000000	          0.00000000	          0.00000000	          0.00000000	         27.47223159	        751.34189598	         25.70404331	         -0.17180409	          0.00000000	          0.03481218	          0.00000000	          0.00000000	          0.00000000	          0.00000000	         -0.19617877	          0.00000000	
          3.18500000	          0.00000000	          0.00000000	          0.00000000	          0.00000000	          0.00000000	          0.00000000	         27.83141308	        753.35093380	         25.73881482	         -0.17134991	          0.00000000	          0.03489253	          0.00000000	          0.00000000	          0.00000000	          0.00000000	         -0.18864816	          0.00000000	
          3.18600000	          0.00000000	          0.00000000	          0.00000000	          0.00000000	          0.00000000	          0.00000000	         28.28928888	        755.32668183	         25.84386737	         -0.17101606	          0.00000000	          0.03494566	          0.00000000	          0.00000000	          0.00000000	          0.00000000	         -0.21631408	          0.00000000	
          3.18700000	          0.00000000	          0.00000000	          0.00000000	          0.00000000	          0.00000000	          0.00000000	         28.80805478	        757.28929932	         25.97982849	         -0.17080540	          0.00000000	          0.03498769	          0.00000000	          0.00000000	          0.00000000	          0.00000000	         -0.27269688	          0.00000000	
          3.18800000	          0.00000000	          0.00000000	          0.00000000	          0.00000000	          0.00000000	          0.00000000	         29.33982184	        759.25321171	         26.10251058	         -0.17066890	          0.00000000	          0.03502837	          0.00000000	          0.00000000	          0.00000000	          0.00000000	         -0.33990098	          0.00000000	
          3.18900000	          0.00000000	          0.00000000	          0.00000000	          0.00000000	          0.00000000	          0.00000000	         29.85585952	        761.23003503	         26.18319532	         -0.17054135	          0.00000000	          0.03507677	          0.00000000	          0.00000000	          0.00000000	          0.00000000	         -0.40026138	          0.00000000	
          3.19000000	          0.00000000	          0.00000000	          0.00000000	          0.00000000	          0.00000000	          0.00000000	         30.35054871	        763.21757919	         26.21285232	         -0.17037596	          0.00000000	          0.03514337	          0.00000000	          0.00000000	          0.00000000	          0.00000000	         -0.44211163	          0.00000000	
          3.19100000	          0.00000000	          0.00000000	          0.00000000	          0.00000000	          0.00000000	          0.00000000	         30.83292349	        765.19127920	         26.19453637	         -0.17015339	          0.00000000	          0.03522924	          0.00000000	          0.00000000	          0.00000000	          0.00000000	         -0.46045058	          0.00000000	
          3.19200000	          0.00000000	          0.00000000	          0.00000000	          0.00000000	          0.00000000	          0.00000000	         31.31977912	        767.11923719	         26.12891743	         -0.16987212	          0.00000000	          0.03532332	          0.00000000	          0.00000000	          0.00000000	          0.00000000	         -0.45946051	          0.00000000	
          3.19300000	          0.00000000	          0.00000000	          0.00000000	          0.00000000	          0.00000000	          0.00000000	         31.83253426	        768.98732044	         26.01296661	         -0.16953757	          0.00000000	          0.03541330	          0.00000000	          0.00000000	          0.00000000	          0.00000000	         -0.45032523	          0.00000000	
          3.19400000	          0.00000000	          0.00000000	          0.00000000	          0.00000000	          0.00000000	          0.00000000	         32.39244199	        770.81507045	         25.85493570	         -0.16915889	          0.00000000	          0.03549038	          0.00000000	          0.00000000	          0.00000000	          0.00000000	         -0.44339944	          0.00000000	
          3.19500000	          0.00000000	          0.00000000	          0.00000000	          0.00000000	          0.00000000	          0.00000000	         33.01668794	        772.66002939	         25.67434442	         -0.16875904	          0.00000000	          0.03554989	          0.00000000	          0.00000000	          0.00000000	          0.00000000	         -0.44469414	          0.00000000	
          3.19600000	          0.00000000	          0.00000000	          0.00000000	          0.00000000	          0.00000000	          0.00000000	         33.70925115	        774.59271499	         25.48955759	         -0.16837918	          0.00000000	          0.03560411	          0.00000000	          0.00000000	          0.00000000	          0.00000000	         -0.45433067	          0.00000000	
          3.19700000	          0.00000000	          0.00000000	          0.00000000	          0.00000000	          0.00000000	          0.00000000	         34.44974296	        776.63691646	         25.31482522	         -0.16805541	          0.00000000	          0.03568518	          0.00000000	          0.00000000	          0.00000000	          0.00000000	         -0.46794816	          0.00000000	
          3.19800000	          0.00000000	          0.00000000	          0.00000000	          0.00000000	          0.00000000	          0.00000000	         35.21178766	        778.74308418	         25.15573419	         -0.16779457	          0.00000000	          0.03581481	          0.00000000	          0.00000000	          0.00000000	          0.00000000	         -0.48519671	          0.00000000	
          3.19900000	          0.00000000	          0.00000000	          0.00000000	          0.00000000	          0.00000000	          0.00000000	         35.99251898	        780.83217884	         25.00409928	         -0.16757592	          0.00000000	          0.03597440	          0.00000000	          0.00000000	          0.00000000	          0.00000000	         -0.51196061	          0.00000000	
          3.20000000	          0.00000000	          0.00000000	          0.00000000	          0.00000000	          0.00000000	          0.00000000	         36.80628103	        782.84687948	         24.84700813	         -0.16736842	          0.00000000	          0.03611595	          0.00000000	          0.00000000	          0.00000000	          0.00000000	         -0.55223645	          0.00000000	
          3.20100000	          0.00000000	          0.00000000	          0.00000000	          0.00000000	          0.00000000	          0.00000000	         37.66082188	        784.77425917	         24.67900475	         -0.16715051	          0.00000000	          0.03620719	          0.00000000	          0.00000000	          0.00000000	          0.00000000	         -0.60346652	          0.00000000	
